<svg xmlns="http://www.w3.org/2000/svg" viewBox="0 0 160 113.18">
    <path d="M51.75,70.34a27.73,27.73,0,1,0-.38-4.55c0,.5,0,1,0,1.5h.3C51.71,67.34,51.73,68.46,51.75,70.34Z"
          style="fill:#0054a6"/>
    <path d="M135.75,13.18H108.24V7.89A7.89,7.89,0,0,0,100.35,0H50.13a7.89,7.89,0,0,0-7.89,7.89v5.29h-18A24.25,24.25,0,0,0,0,37.43v51.5a24.25,24.25,0,0,0,24.24,24.25H40.16c0-.21,0-.43-.06-.66h0c0-.11,0-.22,0-.33L39.9,90l-.16-18.9a41,41,0,0,1-.37-5.35A39.82,39.82,0,1,1,52,94.82c.05,6.22.09,12.48.09,17.59,0,.26,0,.52,0,.77h83.69A24.25,24.25,0,0,0,160,88.93V37.43A24.25,24.25,0,0,0,135.75,13.18Z"
          style="fill:#0054a6"/>
</svg>
