<?xml version="1.0" encoding="UTF-8" standalone="no"?><!DOCTYPE svg PUBLIC "-//W3C//DTD SVG 1.1//EN" "http://www.w3.org/Graphics/SVG/1.1/DTD/svg11.dtd"><svg width="100%" height="100%" viewBox="0 0 298 223" version="1.1" xmlns="http://www.w3.org/2000/svg" xmlns:xlink="http://www.w3.org/1999/xlink" xml:space="preserve" xmlns:serif="http://www.serif.com/" style="fill-rule:evenodd;clip-rule:evenodd;stroke-linejoin:round;stroke-miterlimit:2;"><g id="first-proposal" serif:id="first proposal"><path d="M170.048,59.687c-5.967,-1.489 -12.306,-1.927 -19.016,-1.927c-4.066,0 -13.586,1.667 -18.354,2.581c-7.816,-6.151 -17.578,-9.806 -28.16,-9.806c-25.649,-0 -46.473,21.469 -46.473,47.914c0,4.509 -0.358,123.969 -0.358,123.969l-47.23,-0c-4.58,-0 -8.303,-3.691 -8.343,-8.27c-0.266,-34.314 -1.3,-165.386 -1.895,-201.943c-0.14,-2.411 0.712,-4.775 2.36,-6.542c1.648,-1.766 3.947,-2.781 6.362,-2.809c7.859,-0.091 19.248,-0.221 27.189,-0.311c2.435,-0.028 4.781,0.92 6.513,2.632c1.732,1.713 2.706,4.047 2.706,6.483l0,30.477c0,0 11.201,-40.902 54.123,-40.902c30.651,-0 46.019,17.75 49.503,27.606c17.989,-20.033 46.199,-33.018 80.508,-27.606c53.476,8.435 68.259,61.272 68.259,90.183l0,122.362c0,2.291 -0.91,4.489 -2.53,6.109c-1.621,1.621 -3.818,2.531 -6.11,2.531l-44.814,-0l-0.232,-117.681c0.244,-1.99 -0.11,-4.015 -0.11,-6.07c-0,-26.444 -20.824,-47.914 -46.473,-47.914c-10.254,0 -19.737,3.126 -27.425,8.934Zm-135.055,-48.23l-24.522,0l0,24.522l24.522,0l0,-24.522Z" style="fill-rule:nonzero;"/><path d="M69.255,130.921c3.245,-21.603 14.862,-40.479 31.435,-53.214l-0,9.452l0.573,-0c3.06,-4.587 6.694,-8.504 10.902,-11.753c4.207,-3.249 8.606,-5.924 13.196,-8.026c4.59,-2.102 9.323,-3.631 14.2,-4.586c4.877,-0.956 9.515,-1.434 13.913,-1.434c10.519,0 20.129,1.768 28.831,5.303c8.702,3.536 16.208,8.457 22.52,14.763c6.311,6.306 11.236,13.759 14.774,22.359c3.538,8.599 5.307,17.963 5.307,28.092c-0,10.128 -1.769,19.492 -5.307,28.091c-3.538,8.6 -8.463,16.053 -14.774,22.359c-6.312,6.307 -13.818,11.227 -22.52,14.763c-8.702,3.535 -18.312,5.303 -28.831,5.303c-4.398,-0 -9.036,-0.478 -13.913,-1.433c-4.877,-0.956 -9.61,-2.485 -14.2,-4.587c-4.59,-2.102 -8.989,-4.777 -13.196,-8.026c-4.208,-3.249 -7.842,-7.166 -10.902,-11.753l-0.573,0l0.101,42.594l-31.356,0.31l-0.18,-88.577Zm134.996,0.956c-0,-7.453 -1.195,-14.429 -3.586,-20.926c-2.391,-6.497 -5.785,-12.135 -10.184,-16.912c-4.399,-4.778 -9.706,-8.552 -15.921,-11.323c-6.216,-2.771 -13.244,-4.157 -21.086,-4.157c-7.841,0 -15.013,1.386 -21.515,4.157c-6.503,2.771 -12.145,6.545 -16.926,11.323c-4.781,4.777 -8.51,10.415 -11.188,16.912c-2.677,6.497 -4.016,13.473 -4.016,20.926c-0,7.453 1.339,14.428 4.016,20.925c2.678,6.498 6.407,12.135 11.188,16.913c4.781,4.777 10.423,8.551 16.926,11.322c6.502,2.771 13.674,4.157 21.515,4.157c7.842,-0 14.87,-1.386 21.086,-4.157c6.215,-2.771 11.522,-6.545 15.921,-11.322c4.399,-4.778 7.793,-10.415 10.184,-16.913c2.391,-6.497 3.586,-13.472 3.586,-20.925Z" style="fill-rule:nonzero;"/></g></svg>